<?xml version="1.0" encoding="utf-8"?>
<!-- Generator: Adobe Illustrator 19.0.0, SVG Export Plug-In . SVG Version: 6.00 Build 0)  -->
<!DOCTYPE svg PUBLIC "-//W3C//DTD SVG 1.1//EN" "http://www.w3.org/Graphics/SVG/1.1/DTD/svg11.dtd">
<svg version="1.1" id="Layer_1" xmlns="http://www.w3.org/2000/svg" xmlns:xlink="http://www.w3.org/1999/xlink" x="0px" y="0px"
	 viewBox="0 0 180.2 108.3" style="enable-background:new 0 0 180.2 108.3;" xml:space="preserve">
<style type="text/css">
	.st0{fill:url(#XMLID_151_);}
	.st1{fill:url(#XMLID_152_);}
	.st2{fill:url(#XMLID_153_);}
	.st3{fill:#292C38;}
	.st4{clip-path:url(#SVGID_2_);fill:#292C38;}
</style>
<g>
	<g>
		<g>
			<linearGradient id="XMLID_151_" gradientUnits="userSpaceOnUse" x1="73.9394" y1="6.9024" x2="83.9241" y2="24.3757">
				<stop  offset="0" style="stop-color:#5BBC64"/>
				<stop  offset="0.5" style="stop-color:#1D984E"/>
				<stop  offset="1" style="stop-color:#077A3E"/>
			</linearGradient>
			<path id="XMLID_71_" class="st0" d="M115.9,27.3c-2.7,3.1-2.9-0.7-6.4,1.1c-4.9,2.5-10.5,3.8-16.5,3.8c-7.5,0-14.4-2.4-20.1-6.4
				c-0.5-0.5-1-0.9-1.6-1.2c-1.1-0.6-2.4-1-3.8-1c-4.2,0-7.6,3.4-7.6,7.6c0,0.4,0.1,0.8,0.1,1.2c0,0.1,0,0.3,0.1,0.4
				c2.4,14.4,14.8,25.4,29.9,25.4c16.7,0,28-10.9,28-27.6C117.9,28,116.5,29.8,115.9,27.3z"/>
			<linearGradient id="XMLID_152_" gradientUnits="userSpaceOnUse" x1="59.8929" y1="40.2687" x2="120.3864" y2="40.2687">
				<stop  offset="0" style="stop-color:#36B663"/>
				<stop  offset="0.5" style="stop-color:#52BA6A"/>
				<stop  offset="1" style="stop-color:#6ABF63"/>
			</linearGradient>
			<path id="XMLID_70_" class="st1" d="M111.2,22.1c-2,0-3.9,0.7-5.5,1.8c-0.2,0.1-0.3,0.2-0.5,0.4c-0.4,0.4-0.9,0.7-1.3,1.1
				c-0.3,0.3-0.6,0.6-0.9,0.9c-6.6,6.4-15.6,10.3-25.5,10.3c-6.5,0-12.5-1.7-17.8-4.6c1.9,15,14.7,26.6,30.2,26.6
				c3.7,0,7.2-0.7,10.4-1.9c10.1-3.7,17.7-12.5,19.6-23.3c0-0.1,0.1-0.2,0.1-0.4c0-0.1,0-0.2,0-0.3c0-0.2,0-0.4,0.1-0.7
				c0-0.2,0-0.5,0-0.7C120.4,26.2,116.3,22.1,111.2,22.1z"/>
		</g>
		
			<linearGradient id="XMLID_153_" gradientUnits="userSpaceOnUse" x1="1408.3495" y1="-2221.6506" x2="1426.6565" y2="-2221.6506" gradientTransform="matrix(-0.9371 -0.349 0.349 -0.9371 2201.1543 -1578.0479)">
			<stop  offset="0" style="stop-color:#65BE6B"/>
			<stop  offset="0.6094" style="stop-color:#4FBA6F"/>
			<stop  offset="1" style="stop-color:#4FBA6F"/>
		</linearGradient>
		<circle id="XMLID_69_" class="st2" cx="97.4" cy="9.2" r="9.2"/>
	</g>
	<g>
		<path class="st3" d="M27,104.8L15.8,80.9c0,0,0,0,0,0c-0.1-0.2-0.2-0.4-0.4-0.6c0,0,0,0,0,0c0-0.1-0.1-0.1-0.1-0.1c0,0,0,0,0,0
			C15.1,80,15,79.9,15,79.9c0,0-0.1-0.1-0.1-0.1c0,0,0,0-0.1,0c0,0-0.1-0.1-0.1-0.1c0,0,0,0,0,0c0,0-0.1,0-0.1,0c0,0-0.1,0-0.1-0.1
			c0,0-0.1,0-0.1,0c0,0-0.1,0-0.1,0c0,0-0.1,0-0.1,0c0,0-0.1,0-0.1,0c0,0-0.1,0-0.1,0c0,0-0.1,0-0.1,0c0,0-0.1,0-0.1,0
			c0,0-0.1,0-0.1,0c0,0-0.1,0-0.1,0c0,0-0.1,0-0.1,0c0,0-0.1,0-0.1,0c0,0-0.1,0-0.1,0c0,0-0.1,0-0.1,0c0,0-0.1,0-0.1,0
			c0,0-0.1,0-0.1,0.1c0,0-0.1,0-0.1,0c0,0,0,0,0,0c0,0-0.1,0-0.1,0.1c0,0,0,0-0.1,0c0,0-0.1,0.1-0.1,0.1c-0.1,0.1-0.1,0.1-0.2,0.2
			c0,0,0,0,0,0c-0.1,0-0.1,0.1-0.1,0.1c0,0,0,0,0,0c-0.2,0.2-0.3,0.4-0.4,0.6c0,0,0,0,0,0L0.2,104.8c-0.6,1.2,0,2.7,1.2,3.2
			c1.2,0.6,2.7,0,3.2-1.2l2.4-5.2h13.1l2.4,5.2c0.6,1.2,2,1.7,3.2,1.2C27,107.5,27.5,106,27,104.8z M9.3,96.8l4.3-9.2l4.3,9.2H9.3z"
			/>
		<g>
			<g>
				<defs>
					<path id="SVGID_1_" d="M129.6,84.4c5.2,0,9.5,4.3,9.5,9.5s-4.3,9.5-9.5,9.5c-5.2,0-9.5-4.3-9.5-9.5S124.4,84.4,129.6,84.4
						 M129.6,79.5c-7.9,0-14.4,6.4-14.4,14.4s6.4,14.4,14.4,14.4c7.9,0,14.4-6.4,14.4-14.4S137.6,79.5,129.6,79.5L129.6,79.5z"/>
				</defs>
				<use xlink:href="#SVGID_1_"  style="overflow:visible;fill:#292C38;"/>
				<clipPath id="SVGID_2_">
					<use xlink:href="#SVGID_1_"  style="overflow:visible;"/>
				</clipPath>
				<path id="XMLID_66_" class="st4" d="M115.3,79.5v28.7V79.5z"/>
				<rect id="XMLID_65_" x="115.3" y="79.5" class="st4" width="0.6" height="28.7"/>
				<rect id="XMLID_64_" x="115.8" y="79.5" class="st4" width="0.6" height="28.7"/>
				<rect id="XMLID_63_" x="116.4" y="79.5" class="st4" width="0.6" height="28.7"/>
				<rect id="XMLID_62_" x="117" y="79.5" class="st4" width="0.6" height="28.7"/>
				<rect id="XMLID_61_" x="117.6" y="79.5" class="st4" width="0.6" height="28.7"/>
				<rect id="XMLID_60_" x="118.2" y="79.5" class="st4" width="0.6" height="28.7"/>
				<rect id="XMLID_59_" x="118.8" y="79.5" class="st4" width="0.6" height="28.7"/>
				<rect id="XMLID_58_" x="119.3" y="79.5" class="st4" width="0.6" height="28.7"/>
				<rect id="XMLID_57_" x="119.9" y="79.5" class="st4" width="0.6" height="28.7"/>
				<rect id="XMLID_56_" x="120.5" y="79.5" class="st4" width="0.6" height="28.7"/>
				<rect id="XMLID_55_" x="121.1" y="79.5" class="st4" width="0.6" height="28.7"/>
				<rect id="XMLID_54_" x="121.7" y="79.5" class="st4" width="0.6" height="28.7"/>
				<rect id="XMLID_53_" x="122.3" y="79.5" class="st4" width="0.6" height="28.7"/>
				<rect id="XMLID_52_" x="122.8" y="79.5" class="st4" width="0.6" height="28.7"/>
				<rect id="XMLID_51_" x="123.4" y="79.5" class="st4" width="0.6" height="28.7"/>
				<rect id="XMLID_50_" x="124" y="79.5" class="st4" width="0.6" height="28.7"/>
				<rect id="XMLID_49_" x="124.6" y="79.5" class="st4" width="0.6" height="28.7"/>
				<rect id="XMLID_48_" x="125.2" y="79.5" class="st4" width="0.6" height="28.7"/>
				<rect id="XMLID_47_" x="125.8" y="79.5" class="st4" width="0.6" height="28.7"/>
				<rect id="XMLID_46_" x="126.3" y="79.5" class="st4" width="0.6" height="28.7"/>
				<rect id="XMLID_45_" x="126.9" y="79.5" class="st4" width="0.6" height="28.7"/>
				<rect id="XMLID_44_" x="127.5" y="79.5" class="st4" width="0.6" height="28.7"/>
				<rect id="XMLID_43_" x="128.1" y="79.5" class="st4" width="0.6" height="28.7"/>
				<rect id="XMLID_42_" x="128.7" y="79.5" class="st4" width="0.6" height="28.7"/>
				<rect id="XMLID_41_" x="129.3" y="79.5" class="st4" width="0.6" height="28.7"/>
				<rect id="XMLID_40_" x="129.8" y="79.5" class="st4" width="0.6" height="28.7"/>
				<rect id="XMLID_39_" x="130.4" y="79.5" class="st4" width="0.6" height="28.7"/>
				<rect id="XMLID_38_" x="131" y="79.5" class="st4" width="0.6" height="28.7"/>
				<rect id="XMLID_37_" x="131.6" y="79.5" class="st4" width="0.6" height="28.7"/>
				<rect id="XMLID_36_" x="132.2" y="79.5" class="st4" width="0.6" height="28.7"/>
				<rect id="XMLID_35_" x="132.8" y="79.5" class="st4" width="11.2" height="28.7"/>
				<path id="XMLID_34_" class="st4" d="M144,108.2V79.5V108.2z"/>
				<rect id="XMLID_33_" x="120.1" y="84.4" class="st4" width="0.4" height="19"/>
				<rect id="XMLID_32_" x="120.5" y="84.4" class="st4" width="0.6" height="19"/>
				<rect id="XMLID_31_" x="121.1" y="84.4" class="st4" width="0.6" height="19"/>
				<rect id="XMLID_30_" x="121.7" y="84.4" class="st4" width="0.6" height="19"/>
				<rect id="XMLID_29_" x="122.3" y="84.4" class="st4" width="0.6" height="19"/>
				<rect id="XMLID_28_" x="122.8" y="84.4" class="st4" width="0.6" height="19"/>
				<rect id="XMLID_27_" x="123.4" y="84.4" class="st4" width="0.6" height="19"/>
				<rect id="XMLID_26_" x="124" y="84.4" class="st4" width="0.6" height="19"/>
				<rect id="XMLID_25_" x="124.6" y="84.4" class="st4" width="0.6" height="19"/>
				<rect id="XMLID_24_" x="125.2" y="84.4" class="st4" width="0.6" height="19"/>
				<rect id="XMLID_23_" x="125.8" y="84.4" class="st4" width="0.6" height="19"/>
				<rect id="XMLID_22_" x="126.3" y="84.4" class="st4" width="0.6" height="19"/>
				<rect id="XMLID_21_" x="126.9" y="84.4" class="st4" width="0.6" height="19"/>
				<rect id="XMLID_20_" x="127.5" y="84.4" class="st4" width="0.6" height="19"/>
				<rect id="XMLID_19_" x="128.1" y="84.4" class="st4" width="0.6" height="19"/>
				<rect id="XMLID_18_" x="128.7" y="84.4" class="st4" width="0.6" height="19"/>
				<rect id="XMLID_17_" x="129.3" y="84.4" class="st4" width="0.6" height="19"/>
				<rect id="XMLID_16_" x="129.8" y="84.4" class="st4" width="0.6" height="19"/>
				<rect id="XMLID_15_" x="130.4" y="84.4" class="st4" width="0.6" height="19"/>
				<rect id="XMLID_14_" x="131" y="84.4" class="st4" width="0.6" height="19"/>
				<rect id="XMLID_13_" x="131.6" y="84.4" class="st4" width="0.6" height="19"/>
				<rect id="XMLID_12_" x="132.2" y="84.4" class="st4" width="0.6" height="19"/>
				<rect id="XMLID_11_" x="132.8" y="84.4" class="st4" width="6.4" height="19"/>
			</g>
		</g>
		<path class="st3" d="M63,104.4l-5.8-8.4c3.1-1.3,5.3-4.4,5.3-7.9c0-4.6-3.7-8.4-8.3-8.6c-0.1,0-0.2,0-0.3,0h-8.5
			c-0.1,0-0.2,0-0.3,0c-1.1,0-2,0.7-2.3,1.7c-0.1,0.2-0.1,0.5-0.1,0.7c0,0,0,0.1,0,0.1v12.2c0,0,0,0.1,0,0.1c0,0,0,0.1,0,0.1v11.3
			c0,1.3,1.1,2.4,2.4,2.4c1.3,0,2.4-1.1,2.4-2.4v-9h4.2l7.3,10.4c0.8,1.1,2.3,1.4,3.4,0.6C63.5,107,63.8,105.5,63,104.4z M50.6,91.9
			h-3.1v-7.5h6.3v0c2.1,0,3.8,1.7,3.8,3.8c0,1.9-1.5,3.5-3.4,3.7c-0.1,0-0.3,0-0.4,0v0H50.6z"/>
		<path class="st3" d="M179.8,104.4l-5.8-8.4c3.1-1.3,5.3-4.4,5.3-7.9c0-4.6-3.7-8.4-8.3-8.6c-0.1,0-0.2,0-0.3,0h-8.5
			c-0.1,0-0.2,0-0.3,0c-1.1,0-2,0.7-2.3,1.7c-0.1,0.2-0.1,0.5-0.1,0.7c0,0,0,0.1,0,0.1v12.2c0,0,0,0.1,0,0.1c0,0,0,0.1,0,0.1v11.3
			c0,1.3,1.1,2.4,2.4,2.4c1.3,0,2.4-1.1,2.4-2.4v-9h4.2l7.3,10.4c0.8,1.1,2.3,1.4,3.4,0.6C180.3,107,180.6,105.5,179.8,104.4z
			 M167.4,91.9h-3.1v-7.5h6.3v0c2.1,0,3.8,1.7,3.8,3.8c0,1.9-1.5,3.5-3.4,3.7c-0.1,0-0.3,0-0.4,0v0H167.4z"/>
		<path class="st3" d="M96.7,93.7c1.2-1.5,2-3.4,2-5.5c0-4.6-3.7-8.4-8.3-8.6c-0.1,0-0.2,0-0.3,0h-8.5c-0.1,0-0.2,0-0.3,0
			c-1.1,0-2,0.7-2.3,1.7c-0.1,0.2-0.1,0.5-0.1,0.7c0,0,0,0.1,0,0.1v12.2c0,0,0,0.1,0,0.1c0,0,0,0.1,0,0.1v11.3c0,1.2,0.8,2.2,2,2.4
			c0.2,0,0.3,0,0.5,0h10.3v0c4.5,0,8.2-3.7,8.2-8.2C99.8,97.5,98.6,95.2,96.7,93.7z M83.8,84.4h6.3v0c2.1,0,3.8,1.7,3.8,3.8
			s-1.7,3.8-3.8,3.8v0h-6.3V84.4z M91.9,103.4h-8.1v-6.6h8.1c1.7,0.1,3.1,1.6,3.1,3.3C95,101.8,93.6,103.3,91.9,103.4z"/>
		<g>
			<path id="XMLID_1_" class="st3" d="M125.7,99.4c-0.4,0-0.8-0.2-1.2-0.5c-0.6-0.6-0.6-1.7,0-2.3l7.6-7.6c0.6-0.6,1.7-0.6,2.3,0
				c0.6,0.6,0.6,1.7,0,2.3l-7.6,7.6C126.5,99.2,126.1,99.4,125.7,99.4z"/>
		</g>
	</g>
</g>
</svg>
