<?xml version="1.0" encoding="utf-8"?>
<!-- Generator: Adobe Illustrator 19.0.0, SVG Export Plug-In . SVG Version: 6.00 Build 0)  -->
<!DOCTYPE svg PUBLIC "-//W3C//DTD SVG 1.1//EN" "http://www.w3.org/Graphics/SVG/1.1/DTD/svg11.dtd">
<svg version="1.1" id="Layer_6" xmlns="http://www.w3.org/2000/svg" xmlns:xlink="http://www.w3.org/1999/xlink" x="0px" y="0px"
	 viewBox="-41 30 32 32" style="enable-background:new -41 30 32 32;" xml:space="preserve">
<style type="text/css">
	.st0{fill:#2ECC71;}
	.st1{fill:#282C37;}
</style>
<g>
	<g>
		<path class="st0" d="M-25,54c-1.1,0-2-0.9-2-2V40c0-1.1,0.9-2,2-2s2,0.9,2,2v12C-23,53.1-23.9,54-25,54z"/>
	</g>
	<g>
		<path class="st0" d="M-19,48h-12c-1.1,0-2-0.9-2-2s0.9-2,2-2h12c1.1,0,2,0.9,2,2S-17.9,48-19,48z"/>
	</g>
	<g>
		<path class="st1" d="M-25,62c-8.8,0-16-7.2-16-16s7.2-16,16-16s16,7.2,16,16S-16.2,62-25,62z M-25,34c-6.6,0-12,5.4-12,12
			c0,6.6,5.4,12,12,12c6.6,0,12-5.4,12-12C-13,39.4-18.4,34-25,34z"/>
	</g>
</g>
</svg>
