<?xml version="1.0" encoding="utf-8"?>
<!-- Generator: Adobe Illustrator 17.0.0, SVG Export Plug-In . SVG Version: 6.00 Build 0)  -->
<!DOCTYPE svg PUBLIC "-//W3C//DTD SVG 1.1//EN" "http://www.w3.org/Graphics/SVG/1.1/DTD/svg11.dtd">
<svg version="1.1" id="Layer_1" xmlns="http://www.w3.org/2000/svg" xmlns:xlink="http://www.w3.org/1999/xlink" x="0px" y="0px"
	 width="1000px" height="1000px" viewBox="0 0 1000 1000" enable-background="new 0 0 1000 1000" xml:space="preserve">
<g>
	<g>
		<linearGradient id="SVGID_1_" gradientUnits="userSpaceOnUse" x1="233.4562" y1="132.9449" x2="397.8964" y2="420.7151">
			<stop  offset="0" style="stop-color:#5BBC64"/>
			<stop  offset="0.5" style="stop-color:#1D984E"/>
			<stop  offset="1" style="stop-color:#077A3E"/>
		</linearGradient>
		<path fill="url(#SVGID_1_)" d="M924.039,469.316c-44.634,51.345-47.071-11.61-106.159,18.816
			c-80.257,41.325-172.306,62.775-271.967,62.775c-123.182,0-237.204-38.923-330.711-104.959
			c-7.886-7.997-17.082-14.527-26.881-20.171c-18.313-10.549-39.264-17.045-61.915-17.045C57.48,408.73,1.6,464.608,1.6,533.536
			c0,6.838,0.957,13.421,2.011,19.96c0.347,2.302,0.679,4.607,1.054,6.898c38.801,237.069,244.017,418.167,492.066,418.167
			c275.716,0,460.936-178.886,460.936-454.599C957.668,480.289,934.573,509.687,924.039,469.316z"/>
		<linearGradient id="SVGID_2_" gradientUnits="userSpaceOnUse" x1="2.1217" y1="682.4591" x2="998.3998" y2="682.4591">
			<stop  offset="0" style="stop-color:#36B663"/>
			<stop  offset="0.5" style="stop-color:#52BA6A"/>
			<stop  offset="1" style="stop-color:#6ABF63"/>
		</linearGradient>
		<path fill="url(#SVGID_2_)" d="M847.103,382.696c-33.682,0-64.687,11.141-89.827,29.755c-2.589,2.035-5.263,3.96-7.796,6.056
			c-7.109,5.881-14.032,11.981-20.715,18.342c-4.625,4.781-9.33,9.485-14.111,14.111C606.138,555.964,458.411,620.69,295.487,620.69
			c-106.521,0-206.519-27.726-293.365-76.194C33.97,791.347,244.464,982.222,499.985,982.222
			c60.381,0,118.004-11.198,171.635-30.719c166.344-60.554,291.638-206.154,323.02-384.343c0.344-1.968,0.846-3.878,1.172-5.853
			c0.273-1.494,0.46-3.013,0.69-4.521c0.552-3.578,0.819-7.244,1.297-10.847c0.307-3.953,0.601-7.914,0.601-11.948
			C998.4,450.433,930.661,382.696,847.103,382.696z"/>
	</g>
	
		<linearGradient id="SVGID_3_" gradientUnits="userSpaceOnUse" x1="1636.427" y1="-1436.7535" x2="1937.9291" y2="-1436.7535" gradientTransform="matrix(-0.9371 -0.349 0.349 -0.9371 2795.895 -552.5812)">
		<stop  offset="0" style="stop-color:#65BE6B"/>
		<stop  offset="0.6094" style="stop-color:#4FBA6F"/>
		<stop  offset="1" style="stop-color:#4FBA6F"/>
	</linearGradient>
	<circle fill="url(#SVGID_3_)" cx="619.647" cy="170.06" r="150.751"/>
</g>
</svg>
