<?xml version="1.0" encoding="utf-8"?>
<!-- Generator: Adobe Illustrator 19.0.0, SVG Export Plug-In . SVG Version: 6.00 Build 0)  -->
<!DOCTYPE svg PUBLIC "-//W3C//DTD SVG 1.1//EN" "http://www.w3.org/Graphics/SVG/1.1/DTD/svg11.dtd">
<svg version="1.1" id="Layer_2" xmlns="http://www.w3.org/2000/svg" xmlns:xlink="http://www.w3.org/1999/xlink" x="0px" y="0px"
	 viewBox="-3 4.8 32 32.2" style="enable-background:new -3 4.8 32 32.2;" xml:space="preserve">
<style type="text/css">
	.st0{fill:#7E8087;}
	.st1{fill:#2ECC71;}
</style>
<g>
	<g>
		<path class="st0" d="M-1,23.9c-0.5,0-1-0.2-1.4-0.6S-3,22.4-3,21.9s0.2-1,0.6-1.4c0.7-0.8,2.1-0.8,2.8,0C0.8,20.9,1,21.4,1,21.9
			s-0.2,1-0.6,1.4C0,23.7-0.5,23.9-1,23.9z"/>
	</g>
	<g>
		<path class="st1" d="M9,23.9H5c-1.1,0-2-0.9-2-2s0.9-2,2-2h4c1.1,0,2,0.9,2,2S10.1,23.9,9,23.9z"/>
	</g>
	<g>
		<path class="st0" d="M-1,16.9c-0.5,0-1-0.2-1.4-0.6S-3,15.4-3,14.9s0.2-1,0.6-1.4c0.7-0.8,2.1-0.8,2.8,0C0.8,13.9,1,14.4,1,14.9
			s-0.2,1-0.6,1.4C0,16.7-0.5,16.9-1,16.9z"/>
	</g>
	<g>
		<path class="st0" d="M-1,30.9c-0.5,0-1-0.2-1.4-0.6S-3,29.4-3,28.9s0.2-1,0.6-1.4c0.7-0.8,2.1-0.8,2.8,0C0.8,27.9,1,28.4,1,28.9
			s-0.2,1-0.6,1.4C0,30.7-0.5,30.9-1,30.9z"/>
	</g>
	<g>
		<path class="st1" d="M9,16.9H5c-1.1,0-2-0.9-2-2s0.9-2,2-2h4c1.1,0,2,0.9,2,2S10.1,16.9,9,16.9z"/>
	</g>
	<g>
		<path class="st1" d="M27,30.9H5c-1.1,0-2-0.9-2-2s0.9-2,2-2h22c1.1,0,2,0.9,2,2S28.1,30.9,27,30.9z"/>
	</g>
	<g>
		<path class="st0" d="M22,36.9H10c-3.9,0-7-3.1-7-7v-18c0-3.9,3.1-7,7-7h12c3.9,0,7,3.1,7,7v18C29,33.8,25.9,36.9,22,36.9z M10,8.9
			c-1.7,0-3,1.3-3,3v18c0,1.7,1.3,3,3,3h12c1.7,0,3-1.3,3-3v-18c0-1.7-1.3-3-3-3C22,8.9,10,8.9,10,8.9z"/>
	</g>
</g>
</svg>
