<?xml version="1.0" encoding="utf-8"?>
<!-- Generator: Adobe Illustrator 19.0.0, SVG Export Plug-In . SVG Version: 6.00 Build 0)  -->
<!DOCTYPE svg PUBLIC "-//W3C//DTD SVG 1.1//EN" "http://www.w3.org/Graphics/SVG/1.1/DTD/svg11.dtd">
<svg version="1.1" id="Layer_1" xmlns="http://www.w3.org/2000/svg" xmlns:xlink="http://www.w3.org/1999/xlink" x="0px" y="0px"
	 viewBox="0 0 33.1 33" style="enable-background:new 0 0 33.1 33;" xml:space="preserve">
<style type="text/css">
	.st0{fill:#4FBA6F;}
	.st1{fill:#292C38;}
</style>
<g id="XMLID_23_">
	<path id="XMLID_14_" class="st0" d="M30.6,21.6h-4v-4c0-1.1-0.9-2-2-2s-2,0.9-2,2v4h-4c-1.1,0-2,0.9-2,2s0.9,2,2,2h4v4
		c0,1.1,0.9,2,2,2s2-0.9,2-2v-4h4c1.1,0,2-0.9,2-2S31.7,21.6,30.6,21.6z"/>
	<g id="XMLID_5_">
		<path id="XMLID_13_" class="st1" d="M12.6,32.6h-5c-3.9,0-7-3.1-7-7v-18c0-3.9,3.1-7,7-7h18c3.9,0,7,3.1,7,7c0,1.1-0.9,2-2,2
			s-2-0.9-2-2c0-1.7-1.3-3-3-3h-18c-1.7,0-3,1.3-3,3v18c0,1.7,1.3,3,3,3h5c1.1,0,2,0.9,2,2S13.7,32.6,12.6,32.6z"/>
	</g>
	<g id="XMLID_4_">
		<path id="XMLID_12_" class="st1" d="M10.6,25.6h-1c-1.1,0-2-0.9-2-2s0.9-2,2-2h1c1.1,0,2,0.9,2,2S11.7,25.6,10.6,25.6z"/>
	</g>
	<g id="XMLID_3_">
		<path id="XMLID_11_" class="st1" d="M17.6,18.6h-8c-1.1,0-2-0.9-2-2s0.9-2,2-2h8c1.1,0,2,0.9,2,2S18.7,18.6,17.6,18.6z"/>
	</g>
	<g id="XMLID_2_">
		<path id="XMLID_10_" class="st1" d="M23.6,11.6h-14c-1.1,0-2-0.9-2-2s0.9-2,2-2h14c1.1,0,2,0.9,2,2S24.7,11.6,23.6,11.6z"/>
	</g>
</g>
</svg>
