<?xml version="1.0" encoding="utf-8"?>
<!-- Generator: Adobe Illustrator 19.0.0, SVG Export Plug-In . SVG Version: 6.00 Build 0)  -->
<!DOCTYPE svg PUBLIC "-//W3C//DTD SVG 1.1//EN" "http://www.w3.org/Graphics/SVG/1.1/DTD/svg11.dtd">
<svg version="1.1" id="Layer_6" xmlns="http://www.w3.org/2000/svg" xmlns:xlink="http://www.w3.org/1999/xlink" x="0px" y="0px"
	 viewBox="-40 29.4 34.2 33.6" style="enable-background:new -40 29.4 34.2 33.6;" xml:space="preserve">
<style type="text/css">
	.st0{fill:#282C37;}
	.st1{fill:#2ECC71;}
</style>
<g>
	<g>
		<path class="st0" d="M-22.9,61.4h-10c-3.9,0-7-3.1-7-7v-18c0-3.9,3.1-7,7-7h18c3.9,0,7,3.1,7,7c0,1.1-0.9,2-2,2s-2-0.9-2-2
			c0-1.7-1.3-3-3-3h-18c-1.7,0-3,1.3-3,3v18c0,1.7,1.3,3,3,3h10c1.1,0,2,0.9,2,2S-21.8,61.4-22.9,61.4z"/>
	</g>
	<g>
		<path class="st0" d="M-22.9,47.2h-8c-1.1,0-2-0.9-2-2s0.9-2,2-2h8c1.1,0,2,0.9,2,2S-21.8,47.2-22.9,47.2z"/>
	</g>
	<g>
		<path class="st0" d="M-16.9,40.2h-14c-1.1,0-2-0.9-2-2s0.9-2,2-2h14c1.1,0,2,0.9,2,2S-15.8,40.2-16.9,40.2z"/>
	</g>
	<path class="st1" d="M-8.2,51.4L-8.2,51.4L-9.9,49l-3-4.2c-0.6-0.9-1.9-1.1-2.8-0.5c-0.9,0.6-1.1,1.8-0.5,2.7l2.4,3.3h-13.1
		c-1.1,0-2,0.9-2,2s0.9,2,2,2h13.2l-2.4,3.5c-0.6,0.9-0.4,2.2,0.5,2.8c0.3,0.2,0.7,0.4,1.1,0.4c0.6,0,1.3-0.3,1.6-0.8l3-4.2l1.7-2.4
		l0,0c0.2-0.3,0.3-0.7,0.3-1.1S-8,51.6-8.2,51.4z"/>
</g>
</svg>
