<?xml version="1.0" encoding="utf-8"?>
<!-- Generator: Adobe Illustrator 19.0.0, SVG Export Plug-In . SVG Version: 6.00 Build 0)  -->
<!DOCTYPE svg PUBLIC "-//W3C//DTD SVG 1.1//EN" "http://www.w3.org/Graphics/SVG/1.1/DTD/svg11.dtd">
<svg version="1.1" id="Layer_6" xmlns="http://www.w3.org/2000/svg" xmlns:xlink="http://www.w3.org/1999/xlink" x="0px" y="0px"
	 viewBox="-3 5 32 32" style="enable-background:new -3 5 32 32;" xml:space="preserve">
<style type="text/css">
	.st0{fill:none;stroke:#282C37;stroke-width:4;stroke-linecap:round;stroke-miterlimit:10;}
	.st1{fill:#2ECC71;}
</style>
<g>
	<path class="st0" d="M13,34.2H3c-2.8,0-5-2.2-5-5v-18c0-2.8,2.2-5,5-5h18c2.8,0,5,2.2,5,5"/>
	<line class="st0" x1="5" y1="20" x2="13" y2="20"/>
	<line class="st0" x1="5" y1="13" x2="19" y2="13"/>
	<path class="st1" d="M27.7,26.1L27.7,26.1L26,23.7l-3-4.2c-0.6-0.9-1.9-1.1-2.8-0.5c-0.9,0.6-1.1,1.8-0.5,2.7l2.4,3.3H9
		c-1.1,0-2,0.9-2,2s0.9,2,2,2h13.2l-2.4,3.5c-0.6,0.9-0.4,2.2,0.5,2.8c0.3,0.2,0.7,0.4,1.1,0.4c0.6,0,1.3-0.3,1.6-0.8l3-4.2l1.7-2.4
		l0,0c0.2-0.3,0.3-0.7,0.3-1.1S27.9,26.4,27.7,26.1z"/>
</g>
</svg>
