<?xml version="1.0" encoding="utf-8"?>
<!-- Generator: Adobe Illustrator 19.1.0, SVG Export Plug-In . SVG Version: 6.00 Build 0)  -->
<svg version="1.1" id="Layer_31" xmlns="http://www.w3.org/2000/svg" xmlns:xlink="http://www.w3.org/1999/xlink" x="0px" y="0px"
	 viewBox="-289 381 32 32" style="enable-background:new -289 381 32 32;" xml:space="preserve">
<style type="text/css">
	.st0{fill:none;stroke:#FFFFFF;stroke-width:2;stroke-linecap:round;stroke-miterlimit:10;}
</style>
<circle class="st0" cx="-273" cy="397" r="4.5"/>
<path class="st0" d="M-270,386.4c0.9,0.2,1.7,0.6,2.4,1"/>
<path class="st0" d="M-278.4,387.4c0.7-0.4,1.5-0.7,2.4-1"/>
<path class="st0" d="M-283.6,394c0.2-0.8,0.6-1.6,1-2.4"/>
<path class="st0" d="M-282.6,402.4c-0.4-0.7-0.7-1.5-1-2.4"/>
<path class="st0" d="M-276,407.6c-0.8-0.2-1.6-0.6-2.4-1"/>
<path class="st0" d="M-267.6,406.6c-0.8,0.4-1.6,0.8-2.4,1"/>
<path class="st0" d="M-262.4,400c-0.2,0.8-0.6,1.6-1,2.4"/>
<path class="st0" d="M-263.3,391.7c0.4,0.7,0.7,1.5,0.9,2.3"/>
<g>
	<path class="st0" d="M-278.4,387.4l-2.4-2.4c-0.4-0.4-1-0.4-1.4,0l-2.8,2.9c-0.4,0.4-0.4,1,0,1.4l2.4,2.3"/>
	<path class="st0" d="M-267.6,387.4l2.5-2.4c0.4-0.4,1-0.4,1.4,0l2.8,2.9c0.4,0.4,0.4,1,0,1.4l-2.4,2.4"/>
	<path class="st0" d="M-276,386.4V383c0-0.5,0.4-1,1-1h4c0.5,0,1,0.4,1,1v3.4"/>
	<path class="st0" d="M-282.6,402.4l-2.4,2.3c-0.4,0.4-0.4,1,0,1.4l2.8,2.9c0.4,0.4,1,0.4,1.4,0l2.4-2.4"/>
	<path class="st0" d="M-263.4,402.3l2.4,2.4c0.4,0.4,0.4,1,0,1.4l-2.8,2.9c-0.4,0.4-1,0.4-1.4,0l-2.4-2.4"/>
	<path class="st0" d="M-270,407.6v3.4c0,0.5-0.5,1-1,1h-4c-0.6,0-1-0.5-1-1v-3.4"/>
	<path class="st0" d="M-262.4,400h3.4c0.5,0,1-0.4,1-1v-4c0-0.6-0.5-1-1-1h-3.4"/>
	<path class="st0" d="M-283.6,400h-3.4c-0.6,0-1-0.4-1-1v-4c0-0.5,0.4-1,1-1h3.4"/>
</g>
</svg>
