<?xml version="1.0" encoding="utf-8"?>
<!-- Generator: Adobe Illustrator 19.0.0, SVG Export Plug-In . SVG Version: 6.00 Build 0)  -->
<!DOCTYPE svg PUBLIC "-//W3C//DTD SVG 1.1//EN" "http://www.w3.org/Graphics/SVG/1.1/DTD/svg11.dtd">
<svg version="1.1" id="Layer_6" xmlns="http://www.w3.org/2000/svg" xmlns:xlink="http://www.w3.org/1999/xlink" x="0px" y="0px"
	 viewBox="-3 5 32 32" style="enable-background:new -3 5 32 32;" xml:space="preserve">
<style type="text/css">
	.st0{fill:#BCBEC0;}
</style>
<g>
	<path class="st0" d="M18.5,15.7L13,21.2l-5.5-5.5c-0.8-0.8-2-0.8-2.8,0c-0.8,0.8-0.8,2,0,2.8l6.8,6.8c0.4,0.4,0.9,0.6,1.4,0.6H13
		h0.1c0.5,0,1-0.2,1.4-0.6l6.8-6.8c0.8-0.8,0.8-2,0-2.8S19.3,14.9,18.5,15.7z"/>
	<path class="st0" d="M22,9H4c-3.9,0-7,3.1-7,7v10c0,3.9,3.1,7,7,7h18c3.9,0,7-3.1,7-7V16C29,12.1,25.9,9,22,9z M25,26
		c0,1.7-1.3,3-3,3H4c-1.7,0-3-1.3-3-3V16c0-1.7,1.3-3,3-3h18c1.7,0,3,1.3,3,3V26z"/>
</g>
</svg>
