<?xml version="1.0" encoding="utf-8"?>
<!-- Generator: Adobe Illustrator 19.0.0, SVG Export Plug-In . SVG Version: 6.00 Build 0)  -->
<!DOCTYPE svg PUBLIC "-//W3C//DTD SVG 1.1//EN" "http://www.w3.org/Graphics/SVG/1.1/DTD/svg11.dtd">
<svg version="1.1" id="Layer_6" xmlns="http://www.w3.org/2000/svg" xmlns:xlink="http://www.w3.org/1999/xlink" x="0px" y="0px"
	 viewBox="-3 5 32 32" style="enable-background:new -3 5 32 32;" xml:space="preserve">
<style type="text/css">
	.st0{fill:#BCBEC0;}
</style>
<g>
	<g>
		<path class="st0" d="M20.5,19c-1.1,0-2-0.9-2-2v-5c0-1.7-1.3-3-3-3h-5c-1.7,0-3,1.3-3,3v5c0,1.1-0.9,2-2,2s-2-0.9-2-2v-5
			c0-3.9,3.1-7,7-7h5c3.9,0,7,3.1,7,7v5C22.5,18.1,21.6,19,20.5,19z"/>
	</g>
	<g>
		<path class="st0" d="M22,37H4c-3.9,0-7-3.1-7-7v-6c0-3.9,3.1-7,7-7h18c3.9,0,7,3.1,7,7v6C29,33.9,25.9,37,22,37z M4,21
			c-1.7,0-3,1.3-3,3v6c0,1.7,1.3,3,3,3h18c1.7,0,3-1.3,3-3v-6c0-1.7-1.3-3-3-3H4z"/>
	</g>
	<g>
		<path class="st0" d="M13,31c-3.3,0-6-2.7-6-6s2.7-6,6-6s6,2.7,6,6S16.3,31,13,31z M13,23c-1.1,0-2,0.9-2,2s0.9,2,2,2s2-0.9,2-2
			S14.1,23,13,23z"/>
	</g>
</g>
</svg>
