<?xml version="1.0" encoding="utf-8"?>
<!-- Generator: Adobe Illustrator 19.1.0, SVG Export Plug-In . SVG Version: 6.00 Build 0)  -->
<svg version="1.1" id="Layer_6" xmlns="http://www.w3.org/2000/svg" xmlns:xlink="http://www.w3.org/1999/xlink" x="0px" y="0px"
	 viewBox="-693 663.3 32 32" style="enable-background:new -693 663.3 32 32;" xml:space="preserve">
<style type="text/css">
	.st0{fill:#BCBEC0;}
	.st1{font-family:'MyriadPro-Regular';}
	.st2{font-size:5.9257px;}
</style>
<g>
	<path class="st0" d="M-677,683.8c-3.6,0-6.5-2.9-6.5-6.5s2.9-6.5,6.5-6.5s6.5,2.9,6.5,6.5S-673.4,683.8-677,683.8z M-677,674.8
		c-1.4,0-2.5,1.1-2.5,2.5s1.1,2.5,2.5,2.5s2.5-1.1,2.5-2.5S-675.6,674.8-677,674.8z"/>
</g>
<g>
	<path class="st0" d="M-668.5,690.3c-1.1,0-2-0.9-2-2c0-1.7-1.3-3-3-3h-7c-1.7,0-3,1.3-3,3c0,1.1-0.9,2-2,2s-2-0.9-2-2
		c0-3.9,3.1-7,7-7h7c3.9,0,7,3.1,7,7C-666.5,689.4-667.4,690.3-668.5,690.3z"/>
</g>
<g>
	<path class="st0" d="M-677,695.3c-8.8,0-16-7.2-16-16s7.2-16,16-16s16,7.2,16,16S-668.2,695.3-677,695.3z M-677,667.3
		c-6.6,0-12,5.4-12,12s5.4,12,12,12s12-5.4,12-12S-670.4,667.3-677,667.3z"/>
</g>
<text transform="matrix(1 0 0 1 -680.3331 690.0073)" class="st0 st1 st2">PO</text>
</svg>
