<?xml version="1.0" encoding="utf-8"?>
<!-- Generator: Adobe Illustrator 19.0.0, SVG Export Plug-In . SVG Version: 6.00 Build 0)  -->
<!DOCTYPE svg PUBLIC "-//W3C//DTD SVG 1.1//EN" "http://www.w3.org/Graphics/SVG/1.1/DTD/svg11.dtd">
<svg version="1.1" id="Layer_30" xmlns="http://www.w3.org/2000/svg" xmlns:xlink="http://www.w3.org/1999/xlink" x="0px" y="0px"
	 viewBox="-404 282.3 32 32" style="enable-background:new -404 282.3 32 32;" xml:space="preserve">
<style type="text/css">
	.st0{fill:#A9A9A9;}
</style>
<path id="magnifier-2-icon" class="st0" d="M-372.1,311.1l-8.3-8.3c1.6-2.1,2.5-4.8,2.5-7.6c0-7.2-5.8-13-13-13c-7.2,0-13,5.8-13,13
	c0,7.2,5.8,13,13,13c2.7,0,5.3-0.8,7.3-2.3l8.4,8.4L-372.1,311.1z M-400.2,295.2c0-5.1,4.1-9.2,9.2-9.2c5.1,0,9.2,4.1,9.2,9.2
	c0,5.1-4.1,9.2-9.2,9.2C-396,304.4-400.2,300.2-400.2,295.2z"/>
</svg>
