<?xml version="1.0" encoding="utf-8"?>
<!-- Generator: Adobe Illustrator 19.0.0, SVG Export Plug-In . SVG Version: 6.00 Build 0)  -->
<!DOCTYPE svg PUBLIC "-//W3C//DTD SVG 1.1//EN" "http://www.w3.org/Graphics/SVG/1.1/DTD/svg11.dtd">
<svg version="1.1" id="Layer_6" xmlns="http://www.w3.org/2000/svg" xmlns:xlink="http://www.w3.org/1999/xlink" x="0px" y="0px"
	 viewBox="-41 30 32 32" style="enable-background:new -41 30 32 32;" xml:space="preserve">
<style type="text/css">
	.st0{fill:#2ECC71;}
	.st1{fill:#282C37;}
</style>
<g>
	<path class="st0" d="M-27.6,45.1c-1.1,0-2-0.9-2-2c0-4.1,3.4-7.5,7.5-7.5c1.1,0,2,0.9,2,2s-0.9,2-2,2c-1.9,0-3.5,1.6-3.5,3.5
		C-25.6,44.2-26.5,45.1-27.6,45.1z"/>
</g>
<g>
	<g>
		<path class="st1" d="M-22.1,56.1c-7.2,0-13-5.8-13-13c0-7.2,5.8-13,13-13c7.2,0,13,5.8,13,13C-9.1,50.3-14.9,56.1-22.1,56.1z
			 M-22.1,34.1c-5,0-9,4-9,9c0,5,4,9,9,9c5,0,9-4,9-9C-13.1,38.1-17.1,34.1-22.1,34.1z"/>
	</g>
	<g>
		<path class="st1" d="M-39,62c-0.5,0-1-0.2-1.4-0.6c-0.8-0.8-0.8-2,0-2.8l8.8-8.8c0.8-0.8,2-0.8,2.8,0s0.8,2,0,2.8l-8.8,8.8
			C-38,61.8-38.5,62-39,62z"/>
	</g>
</g>
</svg>
