<?xml version="1.0" encoding="utf-8"?>
<!-- Generator: Adobe Illustrator 19.0.0, SVG Export Plug-In . SVG Version: 6.00 Build 0)  -->
<!DOCTYPE svg PUBLIC "-//W3C//DTD SVG 1.1//EN" "http://www.w3.org/Graphics/SVG/1.1/DTD/svg11.dtd">
<svg version="1.1" id="Layer_6" shape-rendering="optimizeSpeed"
	 xmlns="http://www.w3.org/2000/svg" xmlns:xlink="http://www.w3.org/1999/xlink" x="0px" y="0px" viewBox="-40 30 34.8 32"
	 style="enable-background:new -40 30 34.8 32;" xml:space="preserve">
<style type="text/css">
	.st0{fill:#2ECC71;}
	.st1{fill:#282C37;}
</style>
<g>
	<path class="st0" d="M-7.9,44.9L-7.9,44.9l-1.7-2.4l-3-4.2c-0.6-0.9-1.9-1.1-2.8-0.5s-1.1,1.9-0.5,2.8l2.4,3.4h-13.1
		c-1.1,0-2,0.9-2,2s0.9,2,2,2h13.2l-2.4,3.4c-0.6,0.9-0.4,2.2,0.5,2.8c0.3,0.2,0.7,0.4,1.1,0.4c0.6,0,1.3-0.3,1.6-0.9l3-4.2l1.7-2.4
		l0,0c0.2-0.3,0.3-0.7,0.3-1.1S-7.7,45.2-7.9,44.9z"/>
	<g>
		<path class="st1" d="M-23.6,62c-8.8,0-16-7.2-16-16s7.2-16,16-16c1.9,0,3.9,0.4,5.9,1.1c1,0.4,1.6,1.5,1.2,2.6
			c-0.4,1-1.5,1.6-2.6,1.2c-1.5-0.6-3.1-0.9-4.5-0.9c-6.6,0-12,5.4-12,12c0,6.6,5.4,12,12,12c1.5,0,2.9-0.3,4.3-0.8
			c1-0.4,2.2,0.1,2.6,1.2c0.4,1-0.1,2.2-1.2,2.6C-19.7,61.7-21.6,62-23.6,62z"/>
	</g>
	<path class="st0" d="M-7.9,44.9L-7.9,44.9l-1.7-2.4l-3-4.2c-0.6-0.9-1.9-1.1-2.8-0.5s-1.1,1.9-0.5,2.8l2.4,3.4h-13.1
		c-1.1,0-2,0.9-2,2s0.9,2,2,2h13.2l-2.4,3.4c-0.6,0.9-0.4,2.2,0.5,2.8c0.3,0.2,0.7,0.4,1.1,0.4c0.6,0,1.3-0.3,1.6-0.9l3-4.2l1.7-2.4
		l0,0c0.2-0.3,0.3-0.7,0.3-1.1S-7.7,45.2-7.9,44.9z"/>
</g>
</svg>
