<?xml version="1.0" encoding="utf-8"?>
<!-- Generator: Adobe Illustrator 19.1.0, SVG Export Plug-In . SVG Version: 6.00 Build 0)  -->
<svg version="1.1" id="Layer_6" shape-rendering="optimizeSpeed"
	 xmlns="http://www.w3.org/2000/svg" xmlns:xlink="http://www.w3.org/1999/xlink" x="0px" y="0px" viewBox="-327.6 411 32 32"
	 style="enable-background:new -327.6 411 32 32;" xml:space="preserve">
<style type="text/css">
	.st0{fill:#2ECC71;}
	.st1{fill:#FDFEFF;}
	.st2{fill:#FFFFFF;}
</style>
<g>
	<path class="st0" d="M-295.9,425.9L-295.9,425.9l-1.7-2.4l-3-4.2c-0.6-0.9-1.9-1.1-2.8-0.5c-0.9,0.6-1.1,1.9-0.5,2.8l2.4,3.4h-13.1
		c-1.1,0-2,0.9-2,2s0.9,2,2,2h13.2l-2.4,3.4c-0.6,0.9-0.4,2.2,0.5,2.8c0.3,0.2,0.7,0.4,1.1,0.4c0.6,0,1.3-0.3,1.6-0.9l3-4.2l1.7-2.4
		l0,0c0.2-0.3,0.3-0.7,0.3-1.1S-295.7,426.2-295.9,425.9z"/>
	<g>
		<path class="st1" d="M-311.6,443c-8.8,0-16-7.2-16-16s7.2-16,16-16c1.9,0,3.9,0.4,5.9,1.1c1,0.4,1.6,1.5,1.2,2.6
			c-0.4,1-1.5,1.6-2.6,1.2c-1.5-0.6-3.1-0.9-4.5-0.9c-6.6,0-12,5.4-12,12s5.4,12,12,12c1.5,0,2.9-0.3,4.3-0.8c1-0.4,2.2,0.1,2.6,1.2
			c0.4,1-0.1,2.2-1.2,2.6C-307.7,442.7-309.6,443-311.6,443z"/>
	</g>
	<path class="st2" d="M-295.9,425.9L-295.9,425.9l-1.7-2.4l-3-4.2c-0.6-0.9-1.9-1.1-2.8-0.5c-0.9,0.6-1.1,1.9-0.5,2.8l2.4,3.4h-13.1
		c-1.1,0-2,0.9-2,2s0.9,2,2,2h13.2l-2.4,3.4c-0.6,0.9-0.4,2.2,0.5,2.8c0.3,0.2,0.7,0.4,1.1,0.4c0.6,0,1.3-0.3,1.6-0.9l3-4.2l1.7-2.4
		l0,0c0.2-0.3,0.3-0.7,0.3-1.1S-295.7,426.2-295.9,425.9z"/>
</g>
</svg>
