<?xml version="1.0" encoding="utf-8"?>
<!-- Generator: Adobe Illustrator 19.1.0, SVG Export Plug-In . SVG Version: 6.00 Build 0)  -->
<svg version="1.1" id="Layer_14" xmlns="http://www.w3.org/2000/svg" xmlns:xlink="http://www.w3.org/1999/xlink" x="0px" y="0px"
	 viewBox="0 0 29.1 27.3" style="enable-background:new 0 0 29.1 27.3;" xml:space="preserve">
<g>
	<g>
		<path d="M24.5,25.6c-3-2.1-6-4.3-9.1-6.4c-0.2-0.2-0.7-0.2-0.9,0c-3,2.1-6,4.3-8.9,6.4c0.4,0.3,0.9,0.7,1.3,1
			c1.1-3.3,2.2-6.7,3.3-10c0.1-0.4-0.1-0.8-0.4-1c-2.8-2-5.6-4-8.5-6.1c-0.2,0.6-0.3,1.1-0.5,1.7c3.4,0,6.7,0,10.1,0
			c0.3,0,0.7-0.2,0.8-0.4c1.3-3.1,2.7-6.3,4-9.4c-0.5-0.1-1.1-0.1-1.6-0.2c1.3,3.1,2.5,6.3,3.8,9.4c0.2,0.4,0.4,0.7,0.9,0.7
			c3.2,0,6.3,0,9.5,0c-0.2-0.6-0.3-1.1-0.5-1.7c-2.7,2-5.4,4-8.1,6.1c-0.3,0.2-0.6,0.6-0.4,1c1.3,3.3,2.6,6.7,3.9,10
			c0.4,1.1,2.2,0.6,1.7-0.5c-1.3-3.3-2.6-6.6-3.9-9.9c0.3,0.7-0.7,1.1,0.8,0c0.9-0.7,1.9-1.4,2.8-2.1c1.3-1,2.7-2,4-3
			c0.7-0.5,0.5-1.7-0.5-1.7c-1.4,0-2.8,0-4.3,0c-1.2,0-2.4,0-3.5,0c-1.6,0-1.2-0.4-0.8,0.6c-1.2-3.1-2.5-6.2-3.7-9.3
			c-0.2-0.6-1.3-1-1.6-0.2c-1.3,3.1-2.6,6.2-3.9,9.3c0.3-0.7,0.6-0.3-0.8-0.3c-1.2,0-2.3,0-3.5,0c-1.7,0-3.4,0-5.1,0
			c-1,0-1.2,1.2-0.5,1.7c2.8,2,5.6,4,8.4,6c-0.8-0.6-0.3-1-0.8,0.6c-0.4,1.1-0.8,2.3-1.1,3.4c-0.5,1.7-1.1,3.3-1.6,5
			c-0.2,0.7,0.7,1.5,1.3,1c2.9-2.1,5.9-4.2,8.8-6.4c-0.7,0.5-0.7,0,0.5,0.8c1,0.7,1.9,1.4,2.9,2c1.6,1.2,3.3,2.3,4.9,3.5
			C24.5,27.8,25.4,26.2,24.5,25.6z"/>
	</g>
</g>
</svg>
