<?xml version="1.0" encoding="utf-8"?>
<!-- Generator: Adobe Illustrator 19.0.0, SVG Export Plug-In . SVG Version: 6.00 Build 0)  -->
<!DOCTYPE svg PUBLIC "-//W3C//DTD SVG 1.1//EN" "http://www.w3.org/Graphics/SVG/1.1/DTD/svg11.dtd">
<svg version="1.1" id="Layer_6" xmlns="http://www.w3.org/2000/svg" xmlns:xlink="http://www.w3.org/1999/xlink" x="0px" y="0px"
	 viewBox="-404 282.3 32 32" style="enable-background:new -404 282.3 32 32;" xml:space="preserve">
<style type="text/css">
	.st0{fill:#BCBEC0;}
</style>
<g>
	<path class="st0" d="M-388,302.8c-3.6,0-6.5-2.9-6.5-6.5c0-3.6,2.9-6.5,6.5-6.5s6.5,2.9,6.5,6.5
		C-381.5,299.9-384.4,302.8-388,302.8z M-388,293.8c-1.4,0-2.5,1.1-2.5,2.5s1.1,2.5,2.5,2.5c1.4,0,2.5-1.1,2.5-2.5
		S-386.6,293.8-388,293.8z"/>
</g>
<g>
	<path class="st0" d="M-379.5,309.3c-1.1,0-2-0.9-2-2c0-1.7-1.3-3-3-3h-7c-1.7,0-3,1.3-3,3c0,1.1-0.9,2-2,2s-2-0.9-2-2
		c0-3.9,3.1-7,7-7h7c3.9,0,7,3.1,7,7C-377.5,308.4-378.4,309.3-379.5,309.3z"/>
</g>
<g>
	<path class="st0" d="M-388,314.3c-8.8,0-16-7.2-16-16c0-8.8,7.2-16,16-16s16,7.2,16,16C-372,307.1-379.2,314.3-388,314.3z
		 M-388,286.3c-6.6,0-12,5.4-12,12s5.4,12,12,12c6.6,0,12-5.4,12-12S-381.4,286.3-388,286.3z"/>
</g>
</svg>
